<svg xmlns="http://www.w3.org/2000/svg" viewBox="0 0 33.87 33.87" height="128" width="128"><rect width="33.87" height="33.87" ry="6.35" fill="#134d7c"/><rect ry="3.83" y="1.6" x="7.35" height="30.66" width="19.16" fill="#a40"/><ellipse ry="8.47" rx="5.29" cy="16.93" cx="16.93"/><rect ry="6.35" y="21.17" height="12.7" width="33.87" fill="#64d8cc"/><rect width="33.87" height="6.35" y="21.17" ry="0" fill="#64d8cc"/><g aria-label="eco" fill="#fff" stroke-width=".53"><path d="M6.95 31.68a5.1 5.1 0 0 1-1.74-.27 3.1 3.1 0 0 1-1.95-1.86c-.15-.42-.23-.89-.23-1.4a5.08 5.08 0 0 1 1.44-3.53 5.08 5.08 0 0 1 1.72-1.14c.7-.3 1.45-.44 2.29-.44.98 0 1.73.16 2.24.47.52.31.78.78.78 1.41 0 .6-.22 1.12-.67 1.55-.44.43-1.05.75-1.81.96a14.4 14.4 0 0 1-3.11.6c0 .24.04.51.1.82.05.3.13.56.24.77.14.25.32.45.56.6.25.14.55.2.93.2.65 0 1.16-.13 1.65-.36a8 8 0 0 0 1.9-1.15c-.5.7-1.13 1.72-1.9 2.15-.77.41-1.58.62-2.44.62zm1.87-6.53c0-.47-.09-.82-.26-1.07a.8.8 0 0 0-.7-.38c-.43 0-.83.35-1.21 1.04a6.88 6.88 0 0 0-.72 2.61c.33-.03.65-.08.97-.14.32-.07.57-.14.76-.22.4-.18.7-.41.89-.7.18-.29.27-.67.27-1.14zM16.45 31.68a4.3 4.3 0 0 1-2.96-.95 3.32 3.32 0 0 1-1.06-2.6c0-.67.11-1.3.34-1.89a4.8 4.8 0 0 1 2.71-2.76c.68-.3 1.44-.44 2.29-.44.97 0 1.71.18 2.22.54.52.35.78.85.78 1.47 0 .17-.03.36-.09.57a1.47 1.47 0 0 1-.7.93c-.16.1-.4.14-.72.14-.43 0-.77-.1-1-.3-.24-.22-.36-.45-.36-.68 0-.27.06-.54.17-.81.12-.27.26-.56.44-.85a1.17 1.17 0 0 0-.3-.23 1.14 1.14 0 0 0-.6-.13c-.64 0-1.17.4-1.6 1.17a5.96 5.96 0 0 0-.63 2.89c0 .87.16 1.54.48 1.99.33.45.78.67 1.38.67.6 0 1-.11 1.5-.34.7-.29 1.25-.5 1.85-1.16-.45.7-1.05 1.71-1.8 2.14-.74.42-1.52.63-2.34.63zM31.08 26.47q0 1.04-.4 1.99t-1.12 1.65q-.79.75-1.84 1.16-1.05.4-2.36.4-1.76 0-2.84-.93-1.08-.94-1.08-2.55 0-1.1.4-2.04.42-.94 1.15-1.64.73-.69 1.78-1.08 1.06-.4 2.29-.4 1.86 0 2.93.91 1.09.9 1.09 2.53zm-2.9-.93q0-.97-.34-1.42-.32-.45-.94-.45-.63 0-1.16.5-.53.51-.86 1.5-.29.81-.41 1.77-.12.94-.12 1.7 0 1 .33 1.45.33.44.95.44.68 0 1.17-.55.5-.55.79-1.36.29-.8.43-1.75.15-.96.15-1.83z"/></g></svg>
